<svg width="38" height="38" viewBox="0 0 38 38" fill="none" xmlns="http://www.w3.org/2000/svg">
<path d="M32.3 9.86637e-09C33.7539 -9.0232e-05 35.1529 0.618865 36.2107 1.73022C37.2685 2.84158 37.9052 4.36133 37.9905 5.97853L38 6.35113V27.5216C38.0001 29.1415 37.4446 30.7003 36.4472 31.879C35.4497 33.0576 34.0858 33.7671 32.6344 33.8621L32.3 33.8727H25.2757L20.3167 37.5563C19.9668 37.8159 19.5614 37.9674 19.1418 37.9953C18.7222 38.0232 18.3035 37.9265 17.9284 37.7151L17.6814 37.5563L12.7262 33.8727H5.7C4.2461 33.8728 2.84712 33.2538 1.7893 32.1425C0.731487 31.0311 0.0947957 29.5114 0.00950023 27.8942L8.85485e-09 27.5216V6.35113C-8.09813e-05 4.73114 0.555418 3.17236 1.55284 1.9937C2.55026 0.815047 3.9142 0.105625 5.3656 0.0105855L5.7 9.86637e-09H32.3ZM32.3 4.23409H5.7C5.23463 4.23415 4.78546 4.42453 4.43769 4.76909C4.08993 5.11366 3.86775 5.58846 3.8133 6.10343L3.8 6.35113V27.5216C3.80006 28.0401 3.97092 28.5406 4.28016 28.9281C4.5894 29.3156 5.01552 29.5631 5.4777 29.6238L5.7 29.6386H12.7243C13.3654 29.6385 13.9962 29.8191 14.5578 30.1636L14.8333 30.3499L19 33.445L23.1667 30.3499C23.7004 29.9533 24.3154 29.7137 24.9546 29.6534L25.2757 29.6386H32.3C32.7654 29.6385 33.2145 29.4482 33.5623 29.1036C33.9101 28.759 34.1323 28.2842 34.1867 27.7693L34.2 27.5216V6.35113C34.1999 5.83259 34.0291 5.33212 33.7198 4.94462C33.4106 4.55713 32.9845 4.30957 32.5223 4.2489L32.3 4.23409ZM12.35 14.8193C13.1059 14.8193 13.8308 15.1539 14.3653 15.7494C14.8997 16.3449 15.2 17.1527 15.2 17.9949C15.2 18.8371 14.8997 19.6448 14.3653 20.2403C13.8308 20.8359 13.1059 21.1704 12.35 21.1704C11.5941 21.1704 10.8692 20.8359 10.3347 20.2403C9.80027 19.6448 9.5 18.8371 9.5 17.9949C9.5 17.1527 9.80027 16.3449 10.3347 15.7494C10.8692 15.1539 11.5941 14.8193 12.35 14.8193ZM25.65 14.8193C26.4059 14.8193 27.1308 15.1539 27.6653 15.7494C28.1997 16.3449 28.5 17.1527 28.5 17.9949C28.5 18.8371 28.1997 19.6448 27.6653 20.2403C27.1308 20.8359 26.4059 21.1704 25.65 21.1704C24.8941 21.1704 24.1692 20.8359 23.6347 20.2403C23.1003 19.6448 22.8 18.8371 22.8 17.9949C22.8 17.1527 23.1003 16.3449 23.6347 15.7494C24.1692 15.1539 24.8941 14.8193 25.65 14.8193Z" fill="white"/>
</svg>
