<svg width="40" height="38" viewBox="0 0 40 38" fill="none" xmlns="http://www.w3.org/2000/svg">
<path d="M34 0.901062C35.5304 0.900976 37.003 1.49035 38.1165 2.54859C39.23 3.60683 39.9002 5.05394 39.99 6.59384L40 6.94863V27.1072C40.0001 28.6498 39.4153 30.134 38.3654 31.2564C37.3155 32.3787 35.8798 33.0542 34.352 33.1447L34 33.1548H26.606L21.386 36.6624C21.0177 36.9095 20.5909 37.0538 20.1493 37.0803C19.7076 37.1069 19.2668 37.0148 18.872 36.8135L18.612 36.6624L13.396 33.1548H6C4.46958 33.1549 2.99697 32.5655 1.88348 31.5072C0.769986 30.449 0.099785 29.0019 0.0100002 27.462L9.32089e-09 27.1072V6.94863C-8.52434e-05 5.40608 0.58465 3.92179 1.63457 2.79947C2.68448 1.67715 4.12021 1.00164 5.648 0.911142L6 0.901062H34ZM34 4.93277H6C5.51013 4.93284 5.03733 5.11411 4.67126 5.44221C4.30519 5.77031 4.07131 6.22242 4.014 6.71278L4 6.94863V27.1072C4.00006 27.6009 4.17991 28.0775 4.50543 28.4465C4.83095 28.8154 5.2795 29.0512 5.766 29.1089L6 29.1231H13.394C14.0689 29.1229 14.7328 29.2949 15.324 29.623L15.614 29.8004L20 32.7476L24.386 29.8004C24.9477 29.4227 25.5952 29.1946 26.268 29.1372L26.606 29.1231H34C34.4899 29.123 34.9627 28.9417 35.3287 28.6136C35.6948 28.2855 35.9287 27.8334 35.986 27.3431L36 27.1072V6.94863C35.9999 6.45488 35.8201 5.97832 35.4946 5.60935C35.169 5.24038 34.7205 5.00465 34.234 4.94689L34 4.93277ZM13 15.0121C13.7956 15.0121 14.5587 15.3306 15.1213 15.8977C15.6839 16.4648 16 17.2339 16 18.0358C16 18.8378 15.6839 19.6069 15.1213 20.174C14.5587 20.7411 13.7956 21.0596 13 21.0596C12.2044 21.0596 11.4413 20.7411 10.8787 20.174C10.3161 19.6069 10 18.8378 10 18.0358C10 17.2339 10.3161 16.4648 10.8787 15.8977C11.4413 15.3306 12.2044 15.0121 13 15.0121ZM27 15.0121C27.7956 15.0121 28.5587 15.3306 29.1213 15.8977C29.6839 16.4648 30 17.2339 30 18.0358C30 18.8378 29.6839 19.6069 29.1213 20.174C28.5587 20.7411 27.7956 21.0596 27 21.0596C26.2044 21.0596 25.4413 20.7411 24.8787 20.174C24.3161 19.6069 24 18.8378 24 18.0358C24 17.2339 24.3161 16.4648 24.8787 15.8977C25.4413 15.3306 26.2044 15.0121 27 15.0121Z" fill="black"/>
</svg>
