<svg width="23" height="30" viewBox="0 0 23 30" fill="none" xmlns="http://www.w3.org/2000/svg">
<path d="M0 29.8868C0 26.8672 1.2083 23.9713 3.35908 21.8361C5.50986 19.7009 8.42694 18.5013 11.4686 18.5013C14.5103 18.5013 17.4273 19.7009 19.5781 21.8361C21.7289 23.9713 22.9372 26.8672 22.9372 29.8868H20.0701C20.0701 27.6221 19.1638 25.4501 17.5507 23.8487C15.9377 22.2474 13.7498 21.3477 11.4686 21.3477C9.18735 21.3477 6.99954 22.2474 5.38646 23.8487C3.77337 25.4501 2.86715 27.6221 2.86715 29.8868H0ZM11.4686 17.0782C6.7163 17.0782 2.86715 13.2569 2.86715 8.53908C2.86715 3.82124 6.7163 0 11.4686 0C16.2209 0 20.0701 3.82124 20.0701 8.53908C20.0701 13.2569 16.2209 17.0782 11.4686 17.0782ZM11.4686 14.2318C14.6368 14.2318 17.2029 11.6843 17.2029 8.53908C17.2029 5.39386 14.6368 2.84636 11.4686 2.84636C8.3004 2.84636 5.7343 5.39386 5.7343 8.53908C5.7343 11.6843 8.3004 14.2318 11.4686 14.2318Z" fill="#1F1F1F"/>
</svg>
