<svg width="31" height="31" viewBox="0 0 31 31" fill="none" xmlns="http://www.w3.org/2000/svg">
<path d="M9.08591 0.803711H21.6515C26.4384 0.803711 30.3278 4.68899 30.3278 9.47088V22.0233C30.3278 24.322 29.4137 26.5265 27.7865 28.152C26.1594 29.7774 23.9526 30.6905 21.6515 30.6905H9.08591C4.29902 30.6905 0.409668 26.8052 0.409668 22.0233V9.47088C0.409668 7.1722 1.32377 4.96768 2.95088 3.34227C4.57799 1.71686 6.78483 0.803711 9.08591 0.803711ZM8.78673 3.79239C7.35847 3.79239 5.98871 4.35917 4.97878 5.36805C3.96885 6.37692 3.40148 7.74525 3.40148 9.17201V22.3222C3.40148 25.2959 5.80988 27.7018 8.78673 27.7018H21.9507C23.379 27.7018 24.7487 27.135 25.7586 26.1262C26.7686 25.1173 27.336 23.749 27.336 22.3222V9.17201C27.336 6.19828 24.9275 3.79239 21.9507 3.79239H8.78673ZM23.2222 6.0339C23.7181 6.0339 24.1937 6.2307 24.5444 6.581C24.8951 6.93131 25.0921 7.40642 25.0921 7.90182C25.0921 8.39723 24.8951 8.87234 24.5444 9.22265C24.1937 9.57295 23.7181 9.76975 23.2222 9.76975C22.7263 9.76975 22.2507 9.57295 21.9 9.22265C21.5493 8.87234 21.3523 8.39723 21.3523 7.90182C21.3523 7.40642 21.5493 6.93131 21.9 6.581C22.2507 6.2307 22.7263 6.0339 23.2222 6.0339ZM15.3687 8.27541C17.3524 8.27541 19.2549 9.0626 20.6575 10.4638C22.0602 11.865 22.8482 13.7655 22.8482 15.7471C22.8482 17.7287 22.0602 19.6292 20.6575 21.0304C19.2549 22.4316 17.3524 23.2188 15.3687 23.2188C13.385 23.2188 11.4826 22.4316 10.0799 21.0304C8.67721 19.6292 7.88919 17.7287 7.88919 15.7471C7.88919 13.7655 8.67721 11.865 10.0799 10.4638C11.4826 9.0626 13.385 8.27541 15.3687 8.27541ZM15.3687 11.2641C14.1785 11.2641 13.037 11.7364 12.1954 12.5771C11.3538 13.4179 10.881 14.5581 10.881 15.7471C10.881 16.9361 11.3538 18.0764 12.1954 18.9171C13.037 19.7578 14.1785 20.2301 15.3687 20.2301C16.5589 20.2301 17.7004 19.7578 18.542 18.9171C19.3836 18.0764 19.8564 16.9361 19.8564 15.7471C19.8564 14.5581 19.3836 13.4179 18.542 12.5771C17.7004 11.7364 16.5589 11.2641 15.3687 11.2641Z" fill="#1F1F1F"/>
</svg>
